<?xml version="1.0" encoding="UTF-8" standalone="no"?>
<svg width="260px" height="301px" viewBox="0 0 260 301" version="1.1" xmlns="http://www.w3.org/2000/svg" xmlns:xlink="http://www.w3.org/1999/xlink">
    <!-- Generator: Sketch 3.7.2 (28276) - http://www.bohemiancoding.com/sketch -->
    <title>deleteAllInstruction</title>
    <desc>Created with Sketch.</desc>
    <defs>
        <filter x="-50%" y="-50%" width="200%" height="200%" filterUnits="objectBoundingBox" id="filter-1">
            <feOffset dx="0" dy="2" in="SourceAlpha" result="shadowOffsetOuter1"></feOffset>
            <feGaussianBlur stdDeviation="2" in="shadowOffsetOuter1" result="shadowBlurOuter1"></feGaussianBlur>
            <feColorMatrix values="0 0 0 0 0   0 0 0 0 0   0 0 0 0 0  0 0 0 0.5 0" type="matrix" in="shadowBlurOuter1" result="shadowMatrixOuter1"></feColorMatrix>
            <feMerge>
                <feMergeNode in="shadowMatrixOuter1"></feMergeNode>
                <feMergeNode in="SourceGraphic"></feMergeNode>
            </feMerge>
        </filter>
    </defs>
    <g id="Page-3" stroke="none" stroke-width="1" fill="none" fill-rule="evenodd">
        <g id="Instructions" transform="translate(-1439.000000, -168.000000)">
            <g id="deleteAllInstruction" transform="translate(1434.000000, 165.000000)">
                <g id="iPhone3" opacity="0.400478078" transform="translate(153.450818, 154.867654) rotate(10.000000) translate(-153.450818, -154.867654) translate(60.450818, 14.867654)">
                    <g id="iPhone" transform="translate(-0.000000, 0.000000)">
                        <rect id="background" fill="#FFFFFF" x="8.86699507" y="19.1584636" width="168.472906" height="246.576522"></rect>
                        <path d="M156.898995,0 L29.0553695,0 C13.0342387,0 0,13.0381547 0,29.0640988 L0,249.95125 C0,265.977194 13.0342387,279.015349 29.0553695,279.015349 L156.898995,279.015349 C172.920126,279.015349 185.954365,265.971381 185.954365,249.95125 L185.954365,29.0640988 C185.954365,13.0381547 172.920126,0 156.898995,0 L156.898995,0 Z M11.6221478,58.1281977 L174.332217,58.1281977 L174.332217,220.887151 L11.6221478,220.887151 L11.6221478,58.1281977 Z M92.9771823,265.209902 C101.401772,265.209902 108.231251,258.378371 108.231251,249.95125 C108.231251,241.524129 101.401772,234.692598 92.9771823,234.692598 C84.5525926,234.692598 77.7231133,241.524129 77.7231133,249.95125 C77.7231133,258.378371 84.5525926,265.209902 92.9771823,265.209902 Z M63.9218128,34.8769186 L122.032552,34.8769186 C125.240265,34.8769186 127.843626,32.2727753 127.843626,29.0640988 C127.843626,25.8554223 125.240265,23.2512791 122.032552,23.2512791 L63.9218128,23.2512791 C60.7141,23.2512791 58.1107389,25.8554223 58.1107389,29.0640988 C58.1107389,32.2727753 60.7141,34.8769186 63.9218128,34.8769186 Z" id="Shape" fill="#78909C"></path>
                    </g>
                    <g id="image" transform="translate(40.788177, 87.277445)">
                        <rect id="Rectangle-13" fill="#FFFFFF" x="5.32019704" y="12.0627363" width="93.635468" height="86.5678725"></rect>
                        <path d="M98.0618719,91.5519113 C98.0618719,95.1616724 95.1330907,98.0913336 91.5244138,98.0913336 L74.631622,98.0913336 L50.5476262,73.6829401 L78.4494975,45.772686 L98.0618719,65.3909527 L98.0618719,91.5519113 L98.0618719,91.5519113 Z M13.0749163,98.0913336 C9.46623937,98.0913336 6.53745813,95.1616724 6.53745813,91.5519113 L6.53745813,88.4816526 L32.5075105,65.2143883 L65.37785,98.0913336 L13.0749163,98.0913336 L13.0749163,98.0913336 Z M26.1498325,13.0788445 C33.370455,13.0788445 39.2247488,18.9348971 39.2247488,26.157689 C39.2247488,33.3804808 33.370455,39.2365334 26.1498325,39.2365334 C18.92921,39.2365334 13.0749163,33.3804808 13.0749163,26.157689 C13.0749163,18.9348971 18.92921,13.0788445 26.1498325,13.0788445 L26.1498325,13.0788445 L26.1498325,13.0788445 Z M91.5244138,0 L13.0749163,0 C5.85429375,0 0,5.85605261 0,13.0788445 L0,91.5519113 C0,98.7747032 5.85429375,104.630756 13.0749163,104.630756 L91.5244138,104.630756 C98.7450363,104.630756 104.59933,98.7747032 104.59933,91.5519113 L104.59933,13.0788445 C104.59933,5.85605261 98.7450363,0 91.5244138,0 L91.5244138,0 L91.5244138,0 Z M26.1498325,32.6971112 C29.7585094,32.6971112 32.6872906,29.76745 32.6872906,26.157689 C32.6872906,22.5479279 29.7585094,19.6182667 26.1498325,19.6182667 C22.5411556,19.6182667 19.6123744,22.5479279 19.6123744,26.157689 C19.6123744,29.76745 22.5411556,32.6971112 26.1498325,32.6971112 L26.1498325,32.6971112 L26.1498325,32.6971112 Z" id="image-picture" fill="#E53935"></path>
                    </g>
                </g>
                <g id="iPhone2" opacity="0.6" transform="translate(116.345428, 154.903581) rotate(-10.000000) translate(-116.345428, -154.903581) translate(23.345428, 14.903581)">
                    <g id="iPhone" transform="translate(-0.000000, 0.000000)">
                        <rect id="background" fill="#FFFFFF" x="8.86699507" y="19.1584636" width="168.472906" height="246.576522"></rect>
                        <path d="M156.898995,5.68434189e-14 L29.0553695,5.68434189e-14 C13.0342387,5.68434189e-14 -9.76996262e-15,13.0381547 -9.76996262e-15,29.0640988 L-9.76996262e-15,249.95125 C-9.76996262e-15,265.977194 13.0342387,279.015349 29.0553695,279.015349 L156.898995,279.015349 C172.920126,279.015349 185.954365,265.971381 185.954365,249.95125 L185.954365,29.0640988 C185.954365,13.0381547 172.920126,5.68434189e-14 156.898995,5.68434189e-14 L156.898995,5.68434189e-14 Z M11.6221478,58.1281977 L174.332217,58.1281977 L174.332217,220.887151 L11.6221478,220.887151 L11.6221478,58.1281977 Z M92.9771823,265.209902 C101.401772,265.209902 108.231251,258.378371 108.231251,249.95125 C108.231251,241.524129 101.401772,234.692598 92.9771823,234.692598 C84.5525926,234.692598 77.7231133,241.524129 77.7231133,249.95125 C77.7231133,258.378371 84.5525926,265.209902 92.9771823,265.209902 Z M63.9218128,34.8769186 L122.032552,34.8769186 C125.240265,34.8769186 127.843626,32.2727753 127.843626,29.0640988 C127.843626,25.8554223 125.240265,23.2512791 122.032552,23.2512791 L63.9218128,23.2512791 C60.7141,23.2512791 58.1107389,25.8554223 58.1107389,29.0640988 C58.1107389,32.2727753 60.7141,34.8769186 63.9218128,34.8769186 Z" id="Shape" fill="#78909C"></path>
                    </g>
                    <g id="image" transform="translate(40.788177, 87.277445)">
                        <rect id="Rectangle-13" fill="#FFFFFF" x="5.32019704" y="12.0627363" width="93.635468" height="86.5678725"></rect>
                        <path d="M98.0618719,91.5519113 C98.0618719,95.1616724 95.1330907,98.0913336 91.5244138,98.0913336 L74.631622,98.0913336 L50.5476262,73.6829401 L78.4494975,45.772686 L98.0618719,65.3909527 L98.0618719,91.5519113 L98.0618719,91.5519113 Z M13.0749163,98.0913336 C9.46623937,98.0913336 6.53745813,95.1616724 6.53745813,91.5519113 L6.53745813,88.4816526 L32.5075105,65.2143883 L65.37785,98.0913336 L13.0749163,98.0913336 L13.0749163,98.0913336 Z M26.1498325,13.0788445 C33.370455,13.0788445 39.2247488,18.9348971 39.2247488,26.157689 C39.2247488,33.3804808 33.370455,39.2365334 26.1498325,39.2365334 C18.92921,39.2365334 13.0749163,33.3804808 13.0749163,26.157689 C13.0749163,18.9348971 18.92921,13.0788445 26.1498325,13.0788445 L26.1498325,13.0788445 L26.1498325,13.0788445 Z M91.5244138,0 L13.0749163,0 C5.85429375,0 0,5.85605261 0,13.0788445 L0,91.5519113 C0,98.7747032 5.85429375,104.630756 13.0749163,104.630756 L91.5244138,104.630756 C98.7450363,104.630756 104.59933,98.7747032 104.59933,91.5519113 L104.59933,13.0788445 C104.59933,5.85605261 98.7450363,0 91.5244138,0 L91.5244138,0 L91.5244138,0 Z M26.1498325,32.6971112 C29.7585094,32.6971112 32.6872906,29.76745 32.6872906,26.157689 C32.6872906,22.5479279 29.7585094,19.6182667 26.1498325,19.6182667 C22.5411556,19.6182667 19.6123744,22.5479279 19.6123744,26.157689 C19.6123744,29.76745 22.5411556,32.6971112 26.1498325,32.6971112 L26.1498325,32.6971112 L26.1498325,32.6971112 Z" id="image-picture" fill="#E53935"></path>
                    </g>
                </g>
                <g id="iPhone1" filter="url(#filter-1)" transform="translate(41.896552, 5.584337)">
                    <g id="iPhone">
                        <rect id="background" fill="#FFFFFF" x="8.86699507" y="19.1584636" width="168.472906" height="246.576522"></rect>
                        <path d="M156.898995,0 L29.0553695,0 C13.0342387,0 0,13.0381547 0,29.0640988 L0,249.95125 C0,265.977194 13.0342387,279.015349 29.0553695,279.015349 L156.898995,279.015349 C172.920126,279.015349 185.954365,265.971381 185.954365,249.95125 L185.954365,29.0640988 C185.954365,13.0381547 172.920126,0 156.898995,0 L156.898995,0 Z M11.6221478,58.1281977 L174.332217,58.1281977 L174.332217,220.887151 L11.6221478,220.887151 L11.6221478,58.1281977 Z M92.9771823,265.209902 C101.401772,265.209902 108.231251,258.378371 108.231251,249.95125 C108.231251,241.524129 101.401772,234.692598 92.9771823,234.692598 C84.5525926,234.692598 77.7231133,241.524129 77.7231133,249.95125 C77.7231133,258.378371 84.5525926,265.209902 92.9771823,265.209902 Z M63.9218128,34.8769186 L122.032552,34.8769186 C125.240265,34.8769186 127.843626,32.2727753 127.843626,29.0640988 C127.843626,25.8554223 125.240265,23.2512791 122.032552,23.2512791 L63.9218128,23.2512791 C60.7141,23.2512791 58.1107389,25.8554223 58.1107389,29.0640988 C58.1107389,32.2727753 60.7141,34.8769186 63.9218128,34.8769186 Z" id="Shape" fill="#78909C"></path>
                    </g>
                    <g id="image" transform="translate(40.788177, 87.277445)">
                        <rect id="Rectangle-13" fill="#FFFFFF" x="5.32019704" y="12.0627363" width="93.635468" height="86.5678725"></rect>
                        <path d="M98.0618719,91.5519113 C98.0618719,95.1616724 95.1330907,98.0913336 91.5244138,98.0913336 L74.631622,98.0913336 L50.5476262,73.6829401 L78.4494975,45.772686 L98.0618719,65.3909527 L98.0618719,91.5519113 L98.0618719,91.5519113 Z M13.0749163,98.0913336 C9.46623937,98.0913336 6.53745813,95.1616724 6.53745813,91.5519113 L6.53745813,88.4816526 L32.5075105,65.2143883 L65.37785,98.0913336 L13.0749163,98.0913336 L13.0749163,98.0913336 Z M26.1498325,13.0788445 C33.370455,13.0788445 39.2247488,18.9348971 39.2247488,26.157689 C39.2247488,33.3804808 33.370455,39.2365334 26.1498325,39.2365334 C18.92921,39.2365334 13.0749163,33.3804808 13.0749163,26.157689 C13.0749163,18.9348971 18.92921,13.0788445 26.1498325,13.0788445 L26.1498325,13.0788445 L26.1498325,13.0788445 Z M91.5244138,0 L13.0749163,0 C5.85429375,0 0,5.85605261 0,13.0788445 L0,91.5519113 C0,98.7747032 5.85429375,104.630756 13.0749163,104.630756 L91.5244138,104.630756 C98.7450363,104.630756 104.59933,98.7747032 104.59933,91.5519113 L104.59933,13.0788445 C104.59933,5.85605261 98.7450363,0 91.5244138,0 L91.5244138,0 L91.5244138,0 Z M26.1498325,32.6971112 C29.7585094,32.6971112 32.6872906,29.76745 32.6872906,26.157689 C32.6872906,22.5479279 29.7585094,19.6182667 26.1498325,19.6182667 C22.5411556,19.6182667 19.6123744,22.5479279 19.6123744,26.157689 C19.6123744,29.76745 22.5411556,32.6971112 26.1498325,32.6971112 L26.1498325,32.6971112 L26.1498325,32.6971112 Z" id="image-picture" fill="#E53935"></path>
                    </g>
                </g>
            </g>
        </g>
    </g>
</svg>