<?xml version="1.0" encoding="UTF-8" standalone="no"?>
<svg width="306px" height="248px" viewBox="0 0 306 248" version="1.1" xmlns="http://www.w3.org/2000/svg" xmlns:xlink="http://www.w3.org/1999/xlink">
    <!-- Generator: Sketch 3.7.2 (28276) - http://www.bohemiancoding.com/sketch -->
    <title>keepInstruction</title>
    <desc>Created with Sketch.</desc>
    <defs>
        <filter x="-50%" y="-50%" width="200%" height="200%" filterUnits="objectBoundingBox" id="filter-1">
            <feOffset dx="0" dy="4" in="SourceAlpha" result="shadowOffsetOuter1"></feOffset>
            <feGaussianBlur stdDeviation="3.5" in="shadowOffsetOuter1" result="shadowBlurOuter1"></feGaussianBlur>
            <feColorMatrix values="0 0 0 0 0   0 0 0 0 0   0 0 0 0 0  0 0 0 0.5 0" type="matrix" in="shadowBlurOuter1" result="shadowMatrixOuter1"></feColorMatrix>
            <feMerge>
                <feMergeNode in="shadowMatrixOuter1"></feMergeNode>
                <feMergeNode in="SourceGraphic"></feMergeNode>
            </feMerge>
        </filter>
    </defs>
    <g id="Page-3" stroke="none" stroke-width="1" fill="none" fill-rule="evenodd">
        <g id="Instructions" transform="translate(-336.000000, -182.000000)">
            <g id="keepInstruction" transform="translate(336.000000, 174.000000)">
                <g id="Icon-Set-Filled" transform="translate(0.000000, 45.714286)" fill="#78909C">
                    <path d="M169.411765,158.554839 C169.411765,164.806429 164.352,169.880184 158.117647,169.880184 L128.933647,169.880184 L87.3261176,127.608332 L135.529412,79.2717567 L169.411765,113.247794 L169.411765,158.554839 L169.411765,158.554839 Z M22.5882353,169.880184 C16.3538824,169.880184 11.2941176,164.806429 11.2941176,158.554839 L11.2941176,153.237589 L56.16,112.942009 L112.946824,169.880184 L22.5882353,169.880184 L22.5882353,169.880184 Z M45.1764706,22.6506912 C57.6508235,22.6506912 67.7647059,32.7925382 67.7647059,45.3013825 C67.7647059,57.8102267 57.6508235,67.9520737 45.1764706,67.9520737 C32.7021176,67.9520737 22.5882353,57.8102267 22.5882353,45.3013825 C22.5882353,32.7925382 32.7021176,22.6506912 45.1764706,22.6506912 L45.1764706,22.6506912 L45.1764706,22.6506912 Z M158.117647,0 L22.5882353,0 C10.1138824,0 0,10.141847 0,22.6506912 L0,158.554839 C0,171.063683 10.1138824,181.20553 22.5882353,181.20553 L158.117647,181.20553 C170.592,181.20553 180.705882,171.063683 180.705882,158.554839 L180.705882,22.6506912 C180.705882,10.141847 170.592,0 158.117647,0 L158.117647,0 L158.117647,0 Z M45.1764706,56.6267281 C51.4108235,56.6267281 56.4705882,51.5529733 56.4705882,45.3013825 C56.4705882,39.0497917 51.4108235,33.9760369 45.1764706,33.9760369 C38.9421176,33.9760369 33.8823529,39.0497917 33.8823529,45.3013825 C33.8823529,51.5529733 38.9421176,56.6267281 45.1764706,56.6267281 L45.1764706,56.6267281 L45.1764706,56.6267281 Z" id="image-picture"></path>
                </g>
                <g id="overlayKeep" filter="url(#filter-1)" transform="translate(182.352941, 128.000000) rotate(35.000000) translate(-182.352941, -128.000000) translate(91.176471, 36.571429)">
                    <rect id="Rectangle-33" fill="#1E88E5" x="0" y="0" width="182.352941" height="182.857143" rx="27.3529412"></rect>
                    <text id="Keep" font-family="HelveticaNeue-Thin, Helvetica Neue" font-size="45.2738337" font-weight="300" fill="#FFFFFF">
                        <tspan x="41.5010142" y="135.428571">Keep</tspan>
                    </text>
                    <path d="M99.8665314,73.5805781 L92.7535091,80.7349437 C92.4516836,81.038309 92.0391886,81.1267906 91.648073,81.0509492 C91.2569574,81.1267906 90.8444625,81.038309 90.5426369,80.7349437 L83.4296146,73.5805781 C82.9378905,73.0876094 82.9378905,72.2849553 83.4296146,71.7919867 C83.9200811,71.297754 84.716146,71.297754 85.2078702,71.7919867 L90.3904665,77.0060782 L90.3904665,63.6200832 C90.3904665,62.9210789 90.9538742,62.356061 91.648073,62.356061 C92.3435294,62.356061 92.9056795,62.9210789 92.9056795,63.6200832 L92.9056795,77.0060782 L98.0882759,71.7919867 C98.58,71.297754 99.3773225,71.297754 99.8665314,71.7919867 C100.358256,72.2849553 100.358256,73.0876094 99.8665314,73.5805781 L99.8665314,73.5805781 L99.8665314,73.5805781 Z M106.739351,50.9798613 L76.5567951,50.9798613 C73.7787424,50.9798613 71.5263692,53.243725 71.5263692,56.0359501 L71.5263692,86.3724827 C71.5263692,89.1659717 73.7787424,91.4285714 76.5567951,91.4285714 L106.739351,91.4285714 C109.517404,91.4285714 111.769777,89.1659717 111.769777,86.3724827 L111.769777,56.0359501 C111.769777,53.243725 109.517404,50.9798613 106.739351,50.9798613 L106.739351,50.9798613 L106.739351,50.9798613 Z" id="arrow-down-square" fill="#FFFFFF"></path>
                </g>
            </g>
        </g>
    </g>
</svg>