<svg id="Capa_1" data-name="Capa 1" xmlns="http://www.w3.org/2000/svg" viewBox="0 0 630 172"><defs><style>.cls-1{fill:#fff;}.cls-2{fill:#ec5144;}</style></defs><title>logo&amp;amp;slogan</title><path class="cls-1" d="M1,97H7V54H40.18c9.8,0,17.33-2.36,22.59-7s7.89-11.22,7.89-19.75q0-8.71-2.86-14.09a22.7,22.7,0,0,0-7.14-8.31A24.49,24.49,0,0,0,51.41,1a48.65,48.65,0,0,0-9-1H1V97H1ZM7,5H42A24.82,24.82,0,0,1,53.72,7.48a19.68,19.68,0,0,1,6.87,5.9,19.89,19.89,0,0,1,3.27,7.24,31.09,31.09,0,0,1,.82,6.48,24.81,24.81,0,0,1-1.22,7.63,19.68,19.68,0,0,1-3.95,6.94,20.18,20.18,0,0,1-7.28,5.23A27.78,27.78,0,0,1,41.14,49H7V5H7ZM80,0V97h6V59.36a38.9,38.9,0,0,1,1.52-11.77,26.5,26.5,0,0,1,4.88-9.25,22.83,22.83,0,0,1,7.85-6.06,24.56,24.56,0,0,1,10.59-2.18q7.07,0,11.08,2.59a17.3,17.3,0,0,1,6,6.19,20.18,20.18,0,0,1,2.54,7.55c0.27,2.63.57,4.81,0.57,6.53V97h5V53.91c0-1.45-.12-3.15-0.21-5.1a36.86,36.86,0,0,0-.85-6.06,25.67,25.67,0,0,0-2.26-6.19,19.13,19.13,0,0,0-4.3-5.51,20.44,20.44,0,0,0-7-3.95,31.8,31.8,0,0,0-10.41-1.5,30.09,30.09,0,0,0-8,1.09A25.8,25.8,0,0,0,95.64,30a25.3,25.3,0,0,0-5.85,5.13A32,32,0,0,0,85.9,42H86V0H80Zm69.93,76.37A34.46,34.46,0,0,0,156.12,88a29.73,29.73,0,0,0,10.07,7.89,33.75,33.75,0,0,0,27.49,0A29.75,29.75,0,0,0,203.75,88a34.49,34.49,0,0,0,6.19-11.63,46.67,46.67,0,0,0,2.11-14.15,46,46,0,0,0-2.11-14.08,35.4,35.4,0,0,0-6.19-11.63,29.44,29.44,0,0,0-10.07-8,33.75,33.75,0,0,0-27.49,0,29.42,29.42,0,0,0-10.07,8,35.36,35.36,0,0,0-6.19,11.63,46,46,0,0,0-2.11,14.08,46.6,46.6,0,0,0,2.11,14.15h0Zm4.83-26.2a32.64,32.64,0,0,1,5.17-10.27,25.16,25.16,0,0,1,8.44-7.14,26.54,26.54,0,0,1,23.13,0,25.2,25.2,0,0,1,8.44,7.14,32.72,32.72,0,0,1,5.17,10.27,41.88,41.88,0,0,1,0,24.09,32.7,32.7,0,0,1-5.17,10.27,25.2,25.2,0,0,1-8.44,7.14,26.54,26.54,0,0,1-23.13,0,25.16,25.16,0,0,1-8.44-7.14,32.61,32.61,0,0,1-5.17-10.27,41.88,41.88,0,0,1,0-24.09h0ZM250,27H235V5h-6V27H217v5h12V80.59c0,4,.53,7.12,1.66,9.39a12.19,12.19,0,0,0,4.68,5.1,16.25,16.25,0,0,0,6.79,2,50.34,50.34,0,0,0,7.88.07V92.7a47.91,47.91,0,0,1-6.59-.14A10.63,10.63,0,0,1,238.58,91a7.36,7.36,0,0,1-2.78-3.74,19.32,19.32,0,0,1-.8-6.67V32h15V27h0Zm8.25,49.37A34.46,34.46,0,0,0,264.44,88a29.73,29.73,0,0,0,10.07,7.89,33.75,33.75,0,0,0,27.49,0A29.75,29.75,0,0,0,312.07,88a34.49,34.49,0,0,0,6.19-11.63,46.67,46.67,0,0,0,2.11-14.15,46,46,0,0,0-2.11-14.08,35.4,35.4,0,0,0-6.19-11.63,29.44,29.44,0,0,0-10.07-8,33.75,33.75,0,0,0-27.49,0,29.42,29.42,0,0,0-10.07,8,35.36,35.36,0,0,0-6.19,11.63,46,46,0,0,0-2.11,14.08,46.6,46.6,0,0,0,2.11,14.15h0Zm4.83-26.2a32.64,32.64,0,0,1,5.17-10.27,25.16,25.16,0,0,1,8.44-7.14,26.54,26.54,0,0,1,23.13,0,25.2,25.2,0,0,1,8.44,7.14,32.72,32.72,0,0,1,5.17,10.27,41.88,41.88,0,0,1,0,24.09,32.7,32.7,0,0,1-5.17,10.27,25.2,25.2,0,0,1-8.44,7.14,26.54,26.54,0,0,1-23.13,0,25.16,25.16,0,0,1-8.44-7.14,32.61,32.61,0,0,1-5.17-10.27,41.88,41.88,0,0,1,0-24.09h0Z"/><path class="cls-2" d="M357,5V97h6V5h34V0H323V5h34Zm51,22h-5V97h5V58.95a34.86,34.86,0,0,1,.82-6.8A26.53,26.53,0,0,1,410.39,47a19.24,19.24,0,0,1,2.42-4.22,48.55,48.55,0,0,1,3.35-3.95c3.17-3.08,6.27-5.08,9.76-6A24.36,24.36,0,0,1,435,32V26.83a31.55,31.55,0,0,0-8.94,1,29.45,29.45,0,0,0-7.91,3.33,24.5,24.5,0,0,0-6.06,5.29A13.19,13.19,0,0,0,408.69,43H408V27h0Zm79,60a21.48,21.48,0,0,0,.51,4,8.12,8.12,0,0,0,1.38,3.2,6.66,6.66,0,0,0,2.83,2.18,12.69,12.69,0,0,0,5,.82,14.76,14.76,0,0,0,4.27-.54V92.29a30.56,30.56,0,0,1-3.84.41,4.35,4.35,0,0,1-2.73-.75,4.09,4.09,0,0,1-1.37-2,10.29,10.29,0,0,1-.24-2.72c0-1,.17-2,0.17-3V43.57a16.52,16.52,0,0,0-6-13c-3.86-3.31-10.12-5-18.56-5s-15,2.06-19.59,5.91S441.71,41,441.35,49h5.17c0.36-7,2.47-11.06,6.33-14.14s8.91-4.69,15.17-4.69a32.11,32.11,0,0,1,9,1.06,16.87,16.87,0,0,1,6,3,11.91,11.91,0,0,1,3.4,4.35,12.91,12.91,0,0,1,1.09,5.3,38.2,38.2,0,0,1-.41,6.12,7,7,0,0,1-2,4,11.21,11.21,0,0,1-4.83,2.45,47.31,47.31,0,0,1-8.78,1.29l-8,.68a81.51,81.51,0,0,0-8.78,1.36,26.56,26.56,0,0,0-8.3,3.2,17.48,17.48,0,0,0-8.64,16.13q0,10.07,6.12,14.9t17.28,4.83a33.11,33.11,0,0,0,9.25-1.22,28,28,0,0,0,7.55-3.4,25.63,25.63,0,0,0,5.65-5.12A23.72,23.72,0,0,0,487.07,83H487v4h0Zm0-16.47a28.09,28.09,0,0,1-.58,5.24,22.33,22.33,0,0,1-3.38,8,24.62,24.62,0,0,1-7.85,7.35c-3.45,2.13-8.1,3.2-14,3.2q-8.57,0-13.46-3.74t-4.89-11.5a14.87,14.87,0,0,1,1.91-8,14.07,14.07,0,0,1,5-4.83,22.22,22.22,0,0,1,6.87-2.52q3.81-.75,7.62-1.16l8.71-.82a69,69,0,0,0,8.47-1.22C484,60,486,59,487,57.45V70.52h0ZM506.26,74c0.09,0,.86,7.63,2.31,10.71a22.57,22.57,0,0,0,6,7.8,25.1,25.1,0,0,0,8.91,4.75,37.71,37.71,0,0,0,11.09,1.56,52.54,52.54,0,0,0,9.46-.89,27.75,27.75,0,0,0,8.78-3.13,20,20,0,0,0,6.53-5.92,16,16,0,0,0,2.59-9.39,18.84,18.84,0,0,0-1.91-9,16.07,16.07,0,0,0-5.24-5.78,27.49,27.49,0,0,0-7.89-3.54q-4.56-1.29-9.73-2.25L528.78,57a37,37,0,0,1-7.48-2.52,14.58,14.58,0,0,1-5.38-4.15,10.66,10.66,0,0,1-2-6.8,10.53,10.53,0,0,1,1.84-6.26,14.51,14.51,0,0,1,4.69-4.22,20.67,20.67,0,0,1,6.46-2.31A38.5,38.5,0,0,1,534,30.1a31.46,31.46,0,0,1,8.16,1,19,19,0,0,1,6.6,3.13,14.37,14.37,0,0,1,4.35,5.55A20.2,20.2,0,0,1,554.7,48h5.17a24.12,24.12,0,0,0-2-10.24,18.86,18.86,0,0,0-5.44-7,22.09,22.09,0,0,0-8.23-4A40.88,40.88,0,0,0,534,25.61a46.42,46.42,0,0,0-9,.88,26.87,26.87,0,0,0-8.1,2.92A17.2,17.2,0,0,0,511,34.93a15.23,15.23,0,0,0-2.31,8.64q0,7.21,3.54,11a23.51,23.51,0,0,0,8.91,5.78,60,60,0,0,0,11.57,3.06A90.45,90.45,0,0,1,544.29,66a24.78,24.78,0,0,1,8.91,4.63q3.54,3,3.54,8.85a12.09,12.09,0,0,1-2.18,7.42,15,15,0,0,1-5.51,4.56,25.26,25.26,0,0,1-7.21,2.25,46.82,46.82,0,0,1-7.28.61A27.78,27.78,0,0,1,525.72,93,20.69,20.69,0,0,1,513.6,82.6a22.42,22.42,0,0,1-2.18-8.6h-5.17ZM574,0V97h6V59.36a38.91,38.91,0,0,1,1.5-11.77,26.49,26.49,0,0,1,4.87-9.25,22.81,22.81,0,0,1,7.84-6.06A24.55,24.55,0,0,1,604.8,30.1c4.72,0,8.4.86,11.08,2.59a17.3,17.3,0,0,1,6,6.19,20.2,20.2,0,0,1,2.56,7.55c0.27,2.63.58,4.81,0.58,6.53V97h5V53.91c0-1.45-.14-3.15-0.23-5.1a36.9,36.9,0,0,0-.86-6.06,25.69,25.69,0,0,0-2.27-6.19,19.13,19.13,0,0,0-4.3-5.51,20.45,20.45,0,0,0-7-3.95,31.8,31.8,0,0,0-10.41-1.5,30.09,30.09,0,0,0-8,1.09A25.8,25.8,0,0,0,589.6,30a25.3,25.3,0,0,0-5.85,5.13,32,32,0,0,0-3.88,6.9H580V0h-6Z"/><path class="cls-1" d="M11,135v29h2V135H24v-1H0v1H11Zm14-1v30h2V152.21a12.2,12.2,0,0,1,.54-3.7,8.38,8.38,0,0,1,1.56-2.91,7.23,7.23,0,0,1,2.48-1.9,7.75,7.75,0,0,1,3.34-.68,6.41,6.41,0,0,1,3.49.81,5.44,5.44,0,0,1,1.88,1.95,6.12,6.12,0,0,1,.67,2.37,17.64,17.64,0,0,1,0,2.05V164h2V150.5c0-.46-0.12-1-0.15-1.6a11.8,11.8,0,0,0-.31-1.9,8.15,8.15,0,0,0-.73-1.95,6,6,0,0,0-1.36-1.73,6.45,6.45,0,0,0-2.21-1.24A10,10,0,0,0,35,141.6a9.47,9.47,0,0,0-2.53.34,8.11,8.11,0,0,0-2.29,1,8.49,8.49,0,0,0-1.84,1.74A5.91,5.91,0,0,0,27.09,147H27V134H25Zm41,19s0-.1,0-0.29,0-.27,0-0.41a13.41,13.41,0,0,0-.62-4.13,10.28,10.28,0,0,0-1.82-3.4,8.54,8.54,0,0,0-3-2.32,9.3,9.3,0,0,0-4.08-.85,9.42,9.42,0,0,0-4.38,1,9.22,9.22,0,0,0-3.1,2.57,11.11,11.11,0,0,0-1.86,3.72,15.66,15.66,0,0,0-.62,4.43,16,16,0,0,0,.6,4.47A10.16,10.16,0,0,0,49,161.34a8.65,8.65,0,0,0,3,2.4,9.7,9.7,0,0,0,4.26.88c2.65,0,4.78-.51,6.39-1.88A11.28,11.28,0,0,0,65.8,157H64.17a8.75,8.75,0,0,1-2.66,4.64,7.51,7.51,0,0,1-5.23,1.65,7.75,7.75,0,0,1-3.54-.81,7.28,7.28,0,0,1-2.53-2.12,9.61,9.61,0,0,1-1.61-3.09,13.09,13.09,0,0,1-.6-3.69V153H66Zm-17.75-1c0.09,0,.31-2.3.69-3.38a8.87,8.87,0,0,1,1.59-2.87,7.88,7.88,0,0,1,2.53-2A7.69,7.69,0,0,1,56.5,143a7.17,7.17,0,0,1,3.28.72,7.58,7.58,0,0,1,2.44,1.94,8.63,8.63,0,0,1,1.52,2.87,15.17,15.17,0,0,1,.6,3.44H48.22ZM82,164h2v-5H83.72c0.09,0,.3.82,0.64,1.42a8.08,8.08,0,0,0,1.5,1.86,9.16,9.16,0,0,0,2.51,1.63,9,9,0,0,0,3.71.7,11.79,11.79,0,0,0,2.79-.4A7.79,7.79,0,0,0,98,162.54a10.07,10.07,0,0,0,2.57-3.63,15.52,15.52,0,0,0,1.07-6.31,15.33,15.33,0,0,0-.58-4.3,10,10,0,0,0-1.78-3.49,8.48,8.48,0,0,0-3-2.35,9.66,9.66,0,0,0-4.22-.86,10.94,10.94,0,0,0-2.66.32A7.88,7.88,0,0,0,85,144.64,6.14,6.14,0,0,0,83.72,147H84V134H82v30h0Zm6.22-1.69a7.67,7.67,0,0,1-2.59-2.37,10.31,10.31,0,0,1-1.48-3.4,16.45,16.45,0,0,1-.47-3.94,13.46,13.46,0,0,1,.51-3.81,8.71,8.71,0,0,1,1.54-3,7.07,7.07,0,0,1,2.62-2,8.89,8.89,0,0,1,3.73-.73,7.06,7.06,0,0,1,3.45.81A7.71,7.71,0,0,1,98,146a9.41,9.41,0,0,1,1.5,3.06,12.76,12.76,0,0,1,.49,3.55,17.16,17.16,0,0,1-.43,3.79,11,11,0,0,1-1.37,3.42,7.59,7.59,0,0,1-2.44,2.46,6.81,6.81,0,0,1-3.69.94,7.72,7.72,0,0,1-3.86-.9h0ZM123.84,153s0-.1,0-0.29,0-.27,0-0.41a13.41,13.41,0,0,0-.62-4.13,10.28,10.28,0,0,0-1.82-3.4,8.54,8.54,0,0,0-3-2.32,9.3,9.3,0,0,0-4.08-.85,9.42,9.42,0,0,0-4.38,1,9.22,9.22,0,0,0-3.1,2.57,11.11,11.11,0,0,0-1.86,3.72,15.66,15.66,0,0,0-.62,4.43,16,16,0,0,0,.6,4.47,10.16,10.16,0,0,0,1.82,3.59,8.65,8.65,0,0,0,3,2.4,9.7,9.7,0,0,0,4.26.88c2.65,0,4.78-.51,6.39-1.88a11.28,11.28,0,0,0,3.14-5.73H122a8.75,8.75,0,0,1-2.66,4.64,7.51,7.51,0,0,1-5.23,1.65,7.75,7.75,0,0,1-3.54-.81,7.28,7.28,0,0,1-2.53-2.12,9.49,9.49,0,0,1-1.55-3.09,13.06,13.06,0,0,1-.54-3.69V153h17.84Zm-17.75-1c0.09,0,.31-2.3.69-3.38a8.87,8.87,0,0,1,1.59-2.87,7.88,7.88,0,0,1,2.53-2,7.69,7.69,0,0,1,3.47-.75,7.17,7.17,0,0,1,3.28.72,7.58,7.58,0,0,1,2.44,1.94,8.63,8.63,0,0,1,1.52,2.87,15.17,15.17,0,0,1,.6,3.44H106.09Zm20.7,5a17.09,17.09,0,0,0,.73,3.27,6.92,6.92,0,0,0,1.88,2.41,7.84,7.84,0,0,0,2.8,1.47,11.86,11.86,0,0,0,3.49.48,16.53,16.53,0,0,0,3-.28,8.73,8.73,0,0,0,2.76-1,6.28,6.28,0,0,0,2.05-1.86,5,5,0,0,0,.81-3,5.92,5.92,0,0,0-.6-2.82A5.05,5.05,0,0,0,142,153.9a8.64,8.64,0,0,0-2.48-1.11q-1.43-.41-3.06-0.71l-2.63-.6a11.62,11.62,0,0,1-2.35-.79,4.58,4.58,0,0,1-1.69-1.3,3.35,3.35,0,0,1-.64-2.14,3.31,3.31,0,0,1,.58-2,4.56,4.56,0,0,1,1.48-1.33,6.5,6.5,0,0,1,2-.73,12.1,12.1,0,0,1,2.25-.21,9.89,9.89,0,0,1,2.57.32,6,6,0,0,1,2.07,1,5.15,5.15,0,0,1,1.37,1.92A7.06,7.06,0,0,1,142,149h1.63a6.36,6.36,0,0,0-.62-3.4,6.25,6.25,0,0,0-1.71-2.28,7,7,0,0,0-2.59-1.29,12.84,12.84,0,0,0-3.21-.41,14.58,14.58,0,0,0-2.82.27,8.44,8.44,0,0,0-2.54.91,5.4,5.4,0,0,0-1.86,1.73,5.68,5.68,0,0,0,.38,6.16,7.39,7.39,0,0,0,2.8,1.82,18.84,18.84,0,0,0,3.64,1,28.43,28.43,0,0,1,3.64.83,7.79,7.79,0,0,1,2.8,1.45,3.44,3.44,0,0,1,1.11,2.78,3.8,3.8,0,0,1-.68,2.33,4.71,4.71,0,0,1-1.73,1.43A7.94,7.94,0,0,1,138,163a14.72,14.72,0,0,1-2.29.19,8.73,8.73,0,0,1-2.78-.43,6.54,6.54,0,0,1-2.25-1.26,6.14,6.14,0,0,1-1.56-1.9,6.35,6.35,0,0,1-.68-2.61h-1.63ZM156,142h-4v-7h-2v7h-4v2h4v14.88a6.92,6.92,0,0,0,.39,3,3.7,3.7,0,0,0,1.4,1.6,4.24,4.24,0,0,0,1.93.64,13.24,13.24,0,0,0,2.27,0v-1.41a12.31,12.31,0,0,1-1.9,0,3,3,0,0,1-1.43-.49A2,2,0,0,1,152,161a7.1,7.1,0,0,1,0-2.1V144h4v-2h0Zm14.46,0h-1.75l7,22h2.05l6.07-20h0.09l6,20h2L199,142h-1.8L191,162h-0.09l-6-20h-2.18l-6,20h-0.09l-6.2-20h0ZM216,160.89a7.16,7.16,0,0,0,0,1.26,2.49,2.49,0,0,0,.38,1,2,2,0,0,0,.86.68,3.46,3.46,0,0,0,1.47.26,2.8,2.8,0,0,0,1.24-.17v-1.37a3.49,3.49,0,0,1-1.12.13,1.23,1.23,0,0,1-.82-0.24,1.25,1.25,0,0,1-.41-0.62,3.87,3.87,0,0,1,.11-0.86c0-.31.23-0.63,0.23-0.94V147.25a5.35,5.35,0,0,0-2.06-4.08c-1.21-1-3.27-1.56-5.92-1.56a9.46,9.46,0,0,0-6.2,1.88c-1.44,1.21-2.28,2.52-2.39,5.52h1.63a5.84,5.84,0,0,1,2-4.47,7.42,7.42,0,0,1,4.77-1.49,10.11,10.11,0,0,1,2.82.33,5.3,5.3,0,0,1,1.88.93,3.74,3.74,0,0,1,1.07,1.36,4.05,4.05,0,0,1,.34,1.67,12,12,0,0,1-.13,1.92,2.19,2.19,0,0,1-.64,1.26,3.52,3.52,0,0,1-1.52.77,14.87,14.87,0,0,1-2.76.41l-2.52.21a25.62,25.62,0,0,0-2.76.43,8.35,8.35,0,0,0-2.61,1,5.49,5.49,0,0,0-2.72,5.07,5.6,5.6,0,0,0,1.92,4.68,8.58,8.58,0,0,0,5.43,1.52,10.41,10.41,0,0,0,2.91-.38,8.8,8.8,0,0,0,2.37-1.07,7.44,7.44,0,0,0,1.78-1.43c0.48-.58.86-1.73,1.11-1.73H216v0.89h0Zm0-5.18a14.25,14.25,0,0,1-.29,1.65,7.21,7.21,0,0,1-1.12,2.52,7.85,7.85,0,0,1-2.5,2.31,8.36,8.36,0,0,1-4.41,1,6.83,6.83,0,0,1-4.24-1.18,4.26,4.26,0,0,1-1.54-3.61,4.67,4.67,0,0,1,.6-2.5,4.42,4.42,0,0,1,1.56-1.52,7,7,0,0,1,2.16-.79q1.2-.23,2.4-0.36l2.74-.26a23.7,23.7,0,0,0,2.77-.38,7.76,7.76,0,0,0,1.88-1v4.11h0Zm13.23,8.2c-0.51,1.45-.94,2.63-1.28,3.47a5.61,5.61,0,0,1-1,1.75,4.87,4.87,0,0,1-2,1.14,8.22,8.22,0,0,1-2.93.29V172a21.69,21.69,0,0,0,3.29-.15,4.33,4.33,0,0,0,2.13-.83,4.86,4.86,0,0,0,1.35-1.73c0.38-.78.83-1.78,1.29-2.86l9.43-24.4h-1.84l-7.53,20.06L222,142H220l9.2,21.92h0ZM262,142h-5v-7h-2v7h-4v2h4v14.88a6.65,6.65,0,0,0,.57,3,3.88,3.88,0,0,0,1.49,1.6,5.9,5.9,0,0,0,2.3.64,18,18,0,0,0,2.64,0v-1.41a17.26,17.26,0,0,1-2.23,0,3.67,3.67,0,0,1-1.6-.49,2.36,2.36,0,0,1-.9-1.18,6,6,0,0,1-.28-2.1V144h5v-2h0Zm2.28,15.56a10.83,10.83,0,0,0,1.95,3.66,9.34,9.34,0,0,0,3.17,2.48,10.61,10.61,0,0,0,8.64,0,9.35,9.35,0,0,0,3.17-2.48,10.84,10.84,0,0,0,1.95-3.66,14.67,14.67,0,0,0,.66-4.45,14.47,14.47,0,0,0-.66-4.43A11.13,11.13,0,0,0,281.2,145a9.25,9.25,0,0,0-3.17-2.5,10.61,10.61,0,0,0-8.64,0,9.25,9.25,0,0,0-3.17,2.5,11.12,11.12,0,0,0-1.95,3.66,14.45,14.45,0,0,0-.66,4.43,14.65,14.65,0,0,0,.66,4.45h0Zm1.52-8.23a10.26,10.26,0,0,1,1.63-3.23,7.91,7.91,0,0,1,2.65-2.25,8.34,8.34,0,0,1,7.27,0A7.92,7.92,0,0,1,280,146.1a10.29,10.29,0,0,1,1.63,3.23,13.16,13.16,0,0,1,0,7.57,10.28,10.28,0,0,1-1.63,3.23,7.92,7.92,0,0,1-2.65,2.25,8.34,8.34,0,0,1-7.27,0,7.91,7.91,0,0,1-2.65-2.25,10.25,10.25,0,0,1-1.63-3.23,13.16,13.16,0,0,1,0-7.57h0ZM316,164h2V134h-2v13h0.4a6.09,6.09,0,0,0-1.24-2.29,7.46,7.46,0,0,0-1.9-1.7,9.13,9.13,0,0,0-2.37-1,9.54,9.54,0,0,0-2.61-.36,9.74,9.74,0,0,0-4.32.9,8.72,8.72,0,0,0-3.06,2.44,10.36,10.36,0,0,0-1.82,3.66,17.43,17.43,0,0,0,0,8.9,10.93,10.93,0,0,0,1.71,3.66,8.44,8.44,0,0,0,3,2.52,9.11,9.11,0,0,0,4.28.94,9.23,9.23,0,0,0,5-1.5A9,9,0,0,0,316.4,159H316v5h0Zm-11.37-1.63a7.42,7.42,0,0,1-2.54-2.25,10,10,0,0,1-1.5-3.23,14.25,14.25,0,0,1-.49-3.74,16,16,0,0,1,.45-3.81A9.37,9.37,0,0,1,302,146.1a7.42,7.42,0,0,1,2.54-2.25,7.71,7.71,0,0,1,3.72-.83,7.5,7.5,0,0,1,3.66.86,7.3,7.3,0,0,1,2.54,2.29,10.59,10.59,0,0,1,1.48,3.25,14.29,14.29,0,0,1,.49,3.74,14.12,14.12,0,0,1-.49,3.7,10,10,0,0,1-1.5,3.23,7.7,7.7,0,0,1-2.52,2.27,7.25,7.25,0,0,1-3.61.86,7.62,7.62,0,0,1-3.68-.83h0Zm37-9.37s0-.1,0-0.29,0-.27,0-0.41a13.41,13.41,0,0,0-.62-4.13,10.28,10.28,0,0,0-1.82-3.4,8.54,8.54,0,0,0-3-2.32,9.3,9.3,0,0,0-4.08-.85,9.42,9.42,0,0,0-4.38,1,9.22,9.22,0,0,0-3.1,2.57,11.11,11.11,0,0,0-1.86,3.72,15.66,15.66,0,0,0-.62,4.43,16,16,0,0,0,.6,4.47,10.16,10.16,0,0,0,1.82,3.59,8.65,8.65,0,0,0,3,2.4,9.7,9.7,0,0,0,4.26.88c2.65,0,4.78-.51,6.39-1.88A11.28,11.28,0,0,0,341.5,157h-1.63a8.75,8.75,0,0,1-2.66,4.64,7.51,7.51,0,0,1-5.23,1.65,7.75,7.75,0,0,1-3.54-.81,7.28,7.28,0,0,1-2.53-2.12,9.35,9.35,0,0,1-1.46-3.09,13,13,0,0,1-.46-3.69V153h17.68Zm-17.75-1c0.09,0,.31-2.3.69-3.38a8.87,8.87,0,0,1,1.59-2.87,7.88,7.88,0,0,1,2.53-2,7.69,7.69,0,0,1,3.47-.75,7.17,7.17,0,0,1,3.28.72,7.58,7.58,0,0,1,2.44,1.94,8.63,8.63,0,0,1,1.52,2.87,15.17,15.17,0,0,1,.6,3.44H323.93ZM346,134v30h1V134h-1Zm25.06,19s0-.1,0-0.29,0-.27,0-0.41a13.41,13.41,0,0,0-.62-4.13,10.28,10.28,0,0,0-1.82-3.4,8.54,8.54,0,0,0-3-2.32,9.3,9.3,0,0,0-4.08-.85,9.42,9.42,0,0,0-4.38,1,9.22,9.22,0,0,0-3.1,2.57,11.11,11.11,0,0,0-1.86,3.72,15.66,15.66,0,0,0-.62,4.43,16,16,0,0,0,.6,4.47,10.16,10.16,0,0,0,1.82,3.59,8.65,8.65,0,0,0,3,2.4,9.7,9.7,0,0,0,4.26.88c2.65,0,4.78-.51,6.39-1.88a11.28,11.28,0,0,0,3.14-5.73h-1.63a8.75,8.75,0,0,1-2.66,4.64,7.51,7.51,0,0,1-5.23,1.65,7.75,7.75,0,0,1-3.54-.81,7.28,7.28,0,0,1-2.53-2.12,9.7,9.7,0,0,1-1.66-3.09,13.12,13.12,0,0,1-.65-3.69V153h18.06Zm-17.75-1c0.09,0,.31-2.3.69-3.38a8.87,8.87,0,0,1,1.59-2.87,7.88,7.88,0,0,1,2.53-2,7.69,7.69,0,0,1,3.47-.75,7.17,7.17,0,0,1,3.28.72,7.58,7.58,0,0,1,2.44,1.94,8.63,8.63,0,0,1,1.52,2.87,15.17,15.17,0,0,1,.6,3.44H353.31ZM383,142h-5v-7h-1v7h-5v2h5v14.88c-1,1.26-.14,2.24.22,3a3.54,3.54,0,0,0,1.32,1.6,4.79,4.79,0,0,0,2.06.64,14.84,14.84,0,0,0,2.4,0v-1.41a14.87,14.87,0,0,1-2.08,0,3.35,3.35,0,0,1-1.52-.49,2.56,2.56,0,0,1-1-1.18,5.7,5.7,0,0,1-.39-2.1V144h5v-2h0Zm21.34,11s0-.1,0-0.29,0-.27,0-0.41a13.41,13.41,0,0,0-.62-4.13,10.28,10.28,0,0,0-1.82-3.4,8.54,8.54,0,0,0-3-2.32,9.3,9.3,0,0,0-4.08-.85,9.42,9.42,0,0,0-4.38,1,9.22,9.22,0,0,0-3.1,2.57,11.11,11.11,0,0,0-1.86,3.72,15.66,15.66,0,0,0-.62,4.43,16,16,0,0,0,.6,4.47,10.16,10.16,0,0,0,1.82,3.59,8.65,8.65,0,0,0,3,2.4,9.7,9.7,0,0,0,4.26.88c2.65,0,4.78-.51,6.39-1.88a11.28,11.28,0,0,0,3.14-5.73h-1.63a8.75,8.75,0,0,1-2.66,4.64,7.51,7.51,0,0,1-5.23,1.65,7.75,7.75,0,0,1-3.54-.81,7.28,7.28,0,0,1-2.53-2.12,9.1,9.1,0,0,1-1.29-3.09,13.05,13.05,0,0,1-.29-3.69V153h17.34Zm-17.75-1c0.09,0,.31-2.3.69-3.38a8.87,8.87,0,0,1,1.59-2.87,7.88,7.88,0,0,1,2.53-2,7.69,7.69,0,0,1,3.47-.75,7.17,7.17,0,0,1,3.28.72,7.58,7.58,0,0,1,2.44,1.94,8.63,8.63,0,0,1,1.52,2.87,15.17,15.17,0,0,1,.6,3.44H386.59Zm40,11.92c-0.51,1.45-.94,2.63-1.28,3.47a5.61,5.61,0,0,1-1,1.75,3.89,3.89,0,0,1-1.71,1.14,10.29,10.29,0,0,1-2.6.29V172a26.63,26.63,0,0,0,3-.15,3.78,3.78,0,0,0,2-.83,4.76,4.76,0,0,0,1.27-1.73c0.38-.78.79-1.78,1.25-2.86l9.39-24.4H435l-7.53,20.06L419.31,142h-1.92l9.2,21.92h0Zm12.08-6.36a10.83,10.83,0,0,0,1.95,3.66,9.34,9.34,0,0,0,3.17,2.48,10.61,10.61,0,0,0,8.64,0,9.35,9.35,0,0,0,3.17-2.48,10.84,10.84,0,0,0,1.95-3.66,14.67,14.67,0,0,0,.66-4.45,14.47,14.47,0,0,0-.66-4.43,11.13,11.13,0,0,0-1.95-3.66,9.25,9.25,0,0,0-3.17-2.5,10.61,10.61,0,0,0-8.64,0,9.25,9.25,0,0,0-3.17,2.5,11.12,11.12,0,0,0-1.95,3.66,14.45,14.45,0,0,0-.66,4.43,14.65,14.65,0,0,0,.66,4.45h0Zm1.52-8.23a10.26,10.26,0,0,1,1.63-3.23,7.91,7.91,0,0,1,2.65-2.25,8.34,8.34,0,0,1,7.27,0,7.92,7.92,0,0,1,2.65,2.25,10.29,10.29,0,0,1,1.63,3.23,13.16,13.16,0,0,1,0,7.57,10.28,10.28,0,0,1-1.63,3.23,7.92,7.92,0,0,1-2.65,2.25,8.34,8.34,0,0,1-7.27,0,7.91,7.91,0,0,1-2.65-2.25,10.25,10.25,0,0,1-1.63-3.23,13.16,13.16,0,0,1,0-7.57h0ZM479,142h-1v12a12.19,12.19,0,0,1-.65,3.7,8.49,8.49,0,0,1-1.62,2.91,7.27,7.27,0,0,1-2.53,1.9,7.85,7.85,0,0,1-3.33.68,6.41,6.41,0,0,1-3.51-.81,5.48,5.48,0,0,1-1.86-1.95,5.92,5.92,0,0,1-.56-2.35A15.4,15.4,0,0,1,464,156V142h-2v13.72c0,0.46,0,1,0,1.6a11.36,11.36,0,0,0,.25,1.9,8,8,0,0,0,.7,1.95,6,6,0,0,0,1.35,1.73,6.4,6.4,0,0,0,2.2,1.24,10,10,0,0,0,3.27.47,9.46,9.46,0,0,0,2.52-.34,8.09,8.09,0,0,0,2.29-1,9,9,0,0,0,1.84-1.85,6.45,6.45,0,0,0,1.22-2.4H478v5h1V142h0Zm7,0h-2v22h2V152.08a12,12,0,0,1,.12-2.14,8.4,8.4,0,0,1,.42-1.63,5.94,5.94,0,0,1,.73-1.33,14.88,14.88,0,0,1,1-1.24,6.58,6.58,0,0,1,3-1.88,7.83,7.83,0,0,1,2.74-.26V142a9.33,9.33,0,0,0-5.13,1.37A7.45,7.45,0,0,0,487,145a3.78,3.78,0,0,0-1,2H486v-5h0Zm24,0h-2v30h1.94V160H510c0.66,1,1.7,2.86,3.13,3.66a9.8,9.8,0,0,0,4.89,1.08,10.45,10.45,0,0,0,4.39-.91,8.45,8.45,0,0,0,3.09-2.4,10.21,10.21,0,0,0,1.82-3.63,16.81,16.81,0,0,0,.6-4.63,16,16,0,0,0-.6-4.41,10.86,10.86,0,0,0-1.82-3.68,8.9,8.9,0,0,0-3.08-2.52,9.61,9.61,0,0,0-4.38-.94,8.43,8.43,0,0,0-5.56,1.95,7.19,7.19,0,0,0-1.58,1.74,12.82,12.82,0,0,1-.86,1.71H510v-5h0Zm4.16,20.37a6.7,6.7,0,0,1-2.49-2.22,9.19,9.19,0,0,1-1.31-3.21,18.18,18.18,0,0,1-.39-3.79,16.43,16.43,0,0,1,.43-3.79,9.55,9.55,0,0,1,1.39-3.23,7.24,7.24,0,0,1,2.51-2.27,8.61,8.61,0,0,1,7.53,0,7.5,7.5,0,0,1,2.55,2.31,10.21,10.21,0,0,1,1.46,3.25,15.09,15.09,0,0,1,0,7.57,9.52,9.52,0,0,1-1.5,3.19,7.35,7.35,0,0,1-2.57,2.18,8,8,0,0,1-3.71.81,8.18,8.18,0,0,1-3.88-.83h0ZM532,134v30h1V152.21a12.17,12.17,0,0,1,.72-3.7,8.56,8.56,0,0,1,1.66-2.91,7.4,7.4,0,0,1,2.53-1.9,7.86,7.86,0,0,1,3.36-.68,6.45,6.45,0,0,1,3.5.81,5.46,5.46,0,0,1,1.89,1.95,6.74,6.74,0,0,1,1,2.37c0.09,0.83.36,1.51,0.36,2.05V164h1V150.5c0-.46.07-1,0-1.6a11.34,11.34,0,0,0-.22-1.9,8,8,0,0,0-.69-1.95,6,6,0,0,0-1.34-1.73,6.39,6.39,0,0,0-2.2-1.24,10,10,0,0,0-3.27-.47,9.45,9.45,0,0,0-2.52.34,8.11,8.11,0,0,0-2.29,1,8.49,8.49,0,0,0-1.84,1.74,5.91,5.91,0,0,0-1.22,2.29H533V134h-1Zm21.59,23.56a10.83,10.83,0,0,0,1.95,3.66,9.34,9.34,0,0,0,3.17,2.48,10.61,10.61,0,0,0,8.64,0,9.35,9.35,0,0,0,3.17-2.48,10.84,10.84,0,0,0,1.95-3.66,14.67,14.67,0,0,0,.66-4.45,14.47,14.47,0,0,0-.66-4.43A11.13,11.13,0,0,0,570.5,145a9.26,9.26,0,0,0-3.17-2.5,10.61,10.61,0,0,0-8.64,0,9.25,9.25,0,0,0-3.17,2.5,11.12,11.12,0,0,0-1.95,3.66,14.45,14.45,0,0,0-.66,4.43,14.65,14.65,0,0,0,.66,4.45h0Zm1.52-8.23a10.26,10.26,0,0,1,1.63-3.23,7.91,7.91,0,0,1,2.65-2.25,8.34,8.34,0,0,1,7.27,0,7.92,7.92,0,0,1,2.65,2.25,10.29,10.29,0,0,1,1.63,3.23,13.16,13.16,0,0,1,0,7.57,10.28,10.28,0,0,1-1.63,3.23,7.92,7.92,0,0,1-2.65,2.25,8.34,8.34,0,0,1-7.27,0,7.91,7.91,0,0,1-2.65-2.25,10.25,10.25,0,0,1-1.63-3.23,13.16,13.16,0,0,1,0-7.57h0ZM585,142h-5v-7h-1v7h-4v2h4v14.88a7.26,7.26,0,0,0,.24,3,3.56,3.56,0,0,0,1.33,1.6,4.71,4.71,0,0,0,2,.64,14.59,14.59,0,0,0,2.38,0v-1.41a14.47,14.47,0,0,1-2.05,0,3.3,3.3,0,0,1-1.51-.49,2.6,2.6,0,0,1-1-1.18,5.66,5.66,0,0,1-.41-2.1V144h5v-2h0Zm2.63,15.56a10.83,10.83,0,0,0,1.95,3.66,9.34,9.34,0,0,0,3.17,2.48,10.61,10.61,0,0,0,8.64,0,9.35,9.35,0,0,0,3.17-2.48,10.84,10.84,0,0,0,1.95-3.66,14.67,14.67,0,0,0,.66-4.45,14.47,14.47,0,0,0-.66-4.43,11.13,11.13,0,0,0-1.95-3.66,9.25,9.25,0,0,0-3.17-2.5,10.61,10.61,0,0,0-8.64,0,9.25,9.25,0,0,0-3.17,2.5,11.12,11.12,0,0,0-1.95,3.66,14.45,14.45,0,0,0-.66,4.43,14.65,14.65,0,0,0,.66,4.45h0Zm1.52-8.23a10.26,10.26,0,0,1,1.63-3.23,7.91,7.91,0,0,1,2.65-2.25,8.34,8.34,0,0,1,7.27,0,7.92,7.92,0,0,1,2.65,2.25,10.29,10.29,0,0,1,1.63,3.23,13.16,13.16,0,0,1,0,7.57,10.28,10.28,0,0,1-1.63,3.23,7.92,7.92,0,0,1-2.65,2.25,8.34,8.34,0,0,1-7.27,0,7.91,7.91,0,0,1-2.65-2.25,10.25,10.25,0,0,1-1.63-3.23,13.16,13.16,0,0,1,0-7.57h0Zm21,7.68a17.08,17.08,0,0,0,.73,3.27,6.92,6.92,0,0,0,1.88,2.41,7.84,7.84,0,0,0,2.8,1.47,11.86,11.86,0,0,0,3.49.48,16.53,16.53,0,0,0,3-.28,8.73,8.73,0,0,0,2.76-1,6.28,6.28,0,0,0,2.05-1.86,5,5,0,0,0,.81-3,5.92,5.92,0,0,0-.6-2.82,5.05,5.05,0,0,0-1.65-1.82,8.64,8.64,0,0,0-2.48-1.11q-1.43-.41-3.06-0.71l-2.63-.6a11.62,11.62,0,0,1-2.35-.79,4.58,4.58,0,0,1-1.69-1.3,3.35,3.35,0,0,1-.64-2.14,3.31,3.31,0,0,1,.58-2,4.56,4.56,0,0,1,1.48-1.33,6.5,6.5,0,0,1,2-.73,12.1,12.1,0,0,1,2.25-.21,9.89,9.89,0,0,1,2.57.32,6,6,0,0,1,2.07,1,5.15,5.15,0,0,1,1.37,1.92,7.06,7.06,0,0,1,.49,2.76H627a6.36,6.36,0,0,0-.62-3.4,6.25,6.25,0,0,0-1.71-2.28A7,7,0,0,0,622,142a12.84,12.84,0,0,0-3.21-.41,14.58,14.58,0,0,0-2.82.27,8.44,8.44,0,0,0-2.54.91,5.4,5.4,0,0,0-1.86,1.73,5.68,5.68,0,0,0,.38,6.16,7.39,7.39,0,0,0,2.8,1.82,18.84,18.84,0,0,0,3.64,1,28.44,28.44,0,0,1,3.64.83,7.79,7.79,0,0,1,2.8,1.45,3.44,3.44,0,0,1,1.11,2.78,3.8,3.8,0,0,1-.68,2.33,4.71,4.71,0,0,1-1.73,1.43,7.94,7.94,0,0,1-2.27.71,14.72,14.72,0,0,1-2.29.19,8.73,8.73,0,0,1-2.78-.43,6.54,6.54,0,0,1-2.25-1.26,6.14,6.14,0,0,1-1.56-1.9,6.35,6.35,0,0,1-.68-2.61h-1.63Z"/></svg>