<?xml version="1.0" encoding="UTF-8" standalone="no"?>
<svg width="302px" height="245px" viewBox="0 0 302 245" version="1.1" xmlns="http://www.w3.org/2000/svg" xmlns:xlink="http://www.w3.org/1999/xlink">
    <!-- Generator: Sketch 3.7.2 (28276) - http://www.bohemiancoding.com/sketch -->
    <title>trashInstruction</title>
    <desc>Created with Sketch.</desc>
    <defs>
        <filter x="-50%" y="-50%" width="200%" height="200%" filterUnits="objectBoundingBox" id="filter-1">
            <feOffset dx="0" dy="4" in="SourceAlpha" result="shadowOffsetOuter1"></feOffset>
            <feGaussianBlur stdDeviation="3.5" in="shadowOffsetOuter1" result="shadowBlurOuter1"></feGaussianBlur>
            <feColorMatrix values="0 0 0 0 0   0 0 0 0 0   0 0 0 0 0  0 0 0 0.5 0" type="matrix" in="shadowBlurOuter1" result="shadowMatrixOuter1"></feColorMatrix>
            <feMerge>
                <feMergeNode in="shadowMatrixOuter1"></feMergeNode>
                <feMergeNode in="SourceGraphic"></feMergeNode>
            </feMerge>
        </filter>
    </defs>
    <g id="Page-3" stroke="none" stroke-width="1" fill="none" fill-rule="evenodd">
        <g id="Instructions" transform="translate(-215.000000, -487.000000)">
            <g id="trashInstruction" transform="translate(209.000000, 479.000000)">
                <g id="Icon-Set-Filled-Copy-2" transform="translate(128.312474, 45.247169)" fill="#78909C">
                    <path d="M167.896376,156.934698 C167.896376,163.122409 162.881871,168.144319 156.703285,168.144319 L127.780336,168.144319 L86.5449855,126.304408 L134.317101,78.4617443 L167.896376,112.090608 L167.896376,156.934698 L167.896376,156.934698 Z M22.3861835,168.144319 C16.2075969,168.144319 11.1930918,163.122409 11.1930918,156.934698 L11.1930918,151.671781 L55.6576488,111.787948 L111.936514,168.144319 L22.3861835,168.144319 L22.3861835,168.144319 Z M44.7723671,22.4192426 C57.1351369,22.4192426 67.1585506,32.4574585 67.1585506,44.8384852 C67.1585506,57.2195119 57.1351369,67.2577278 44.7723671,67.2577278 C32.4095972,67.2577278 22.3861835,57.2195119 22.3861835,44.8384852 C22.3861835,32.4574585 32.4095972,22.4192426 44.7723671,22.4192426 L44.7723671,22.4192426 L44.7723671,22.4192426 Z M156.703285,0 L22.3861835,0 C10.0234137,0 0,10.0382159 0,22.4192426 L0,156.934698 C0,169.315725 10.0234137,179.353941 22.3861835,179.353941 L156.703285,179.353941 C169.066055,179.353941 179.089468,169.315725 179.089468,156.934698 L179.089468,22.4192426 C179.089468,10.0382159 169.066055,0 156.703285,0 L156.703285,0 L156.703285,0 Z M44.7723671,56.0481065 C50.9509537,56.0481065 55.9654588,51.0261961 55.9654588,44.8384852 C55.9654588,38.6507742 50.9509537,33.6288639 44.7723671,33.6288639 C38.5937804,33.6288639 33.5792753,38.6507742 33.5792753,44.8384852 C33.5792753,51.0261961 38.5937804,56.0481065 44.7723671,56.0481065 L44.7723671,56.0481065 L44.7723671,56.0481065 Z" id="image-picture"></path>
                </g>
                <g id="overlayTrash" filter="url(#filter-1)" transform="translate(128.090569, 127.952414) rotate(-35.000000) translate(-128.090569, -127.952414) translate(36.826063, 36.553132)">
                    <rect id="Rectangle-33" fill="#E53935" x="1.80721794" y="3.08640456e-13" width="180.721794" height="180.988677" rx="27.0906663"></rect>
                    <path d="M84.6899718,69.2255333 C84.6899718,68.5349226 85.2483398,67.9744271 85.936329,67.9744271 C86.6243182,67.9744271 87.1826862,68.5349226 87.1826862,69.2255333 L87.1826862,84.2388076 C87.1826862,84.9306693 86.6243182,85.4899138 85.936329,85.4899138 C85.2483398,85.4899138 84.6899718,84.9306693 84.6899718,84.2388076 L84.6899718,69.2255333 L84.6899718,69.2255333 Z M90.9217578,69.2255333 C90.9217578,68.5349226 91.4801258,67.9744271 92.168115,67.9744271 C92.8561042,67.9744271 93.4144722,68.5349226 93.4144722,69.2255333 L93.4144722,84.2388076 C93.4144722,84.9306693 92.8561042,85.4899138 92.168115,85.4899138 C91.4801258,85.4899138 90.9217578,84.9306693 90.9217578,84.2388076 L90.9217578,69.2255333 L90.9217578,69.2255333 Z M97.1535438,69.2255333 C97.1535438,68.5349226 97.7119118,67.9744271 98.399901,67.9744271 C99.0878902,67.9744271 99.6462582,68.5349226 99.6462582,69.2255333 L99.6462582,84.2388076 C99.6462582,84.9306693 99.0878902,85.4899138 98.399901,85.4899138 C97.7119118,85.4899138 97.1535438,84.9306693 97.1535438,84.2388076 L97.1535438,69.2255333 L97.1535438,69.2255333 Z M78.4581858,85.4899138 C78.4581858,88.2536074 80.6904115,90.4943386 83.4436146,90.4943386 L100.892615,90.4943386 C103.645818,90.4943386 105.878044,88.2536074 105.878044,85.4899138 L105.878044,65.4722147 L78.4581858,65.4722147 L78.4581858,85.4899138 L78.4581858,85.4899138 Z M95.9071866,55.4633651 L88.4290434,55.4633651 L88.4290434,54.2122589 C88.4290434,53.5203972 88.9874114,52.9611527 89.6754006,52.9611527 L94.6608294,52.9611527 C95.3488186,52.9611527 95.9071866,53.5203972 95.9071866,54.2122589 L95.9071866,55.4633651 L95.9071866,55.4633651 Z M105.878044,55.4633651 L98.399901,55.4633651 L98.399901,52.9611527 C98.399901,51.5799315 97.2831649,50.4589403 95.9071866,50.4589403 L88.4290434,50.4589403 C87.053065,50.4589403 85.936329,51.5799315 85.936329,52.9611527 L85.936329,55.4633651 L78.4581858,55.4633651 C77.0822074,55.4633651 75.9654714,56.5843563 75.9654714,57.9655775 L75.9654714,60.4677899 C75.9654714,61.8490111 77.0809611,62.9687512 78.4569394,62.9700023 L105.880537,62.9700023 C107.255269,62.9687512 108.370759,61.8490111 108.370759,60.4677899 L108.370759,57.9655775 C108.370759,56.5843563 107.254023,55.4633651 105.878044,55.4633651 L105.878044,55.4633651 L105.878044,55.4633651 Z" id="trash" fill="#FFFFFF"></path>
                    <text id="Trash" font-family="HelveticaNeue-Thin, Helvetica Neue" font-size="44.8397236" font-weight="300" fill="#FFFFFF">
                        <tspan x="39.7587947" y="133.494339">Trash</tspan>
                    </text>
                </g>
            </g>
        </g>
    </g>
</svg>